<?xml version="1.0" encoding="iso-8859-1"?>
<!-- Generator: Adobe Illustrator 19.0.0, SVG Export Plug-In . SVG Version: 6.00 Build 0)  -->
<svg version="1.1" id="Capa_1" xmlns="http://www.w3.org/2000/svg" xmlns:xlink="http://www.w3.org/1999/xlink" x="0px" y="0px"
	 viewBox="0 0 486.553 486.553" style="enable-background:new 0 0 486.553 486.553;" xml:space="preserve">
<linearGradient id="SVGID_1_" gradientUnits="userSpaceOnUse" x1="139.5941" y1="493.2686" x2="139.5941" y2="34.7387" gradientTransform="matrix(1 0 0 -1 0 488.5373)">
	<stop  offset="0" style="stop-color:#00EFD1"/>
	<stop  offset="1" style="stop-color:#00ACEA"/>
</linearGradient>
<path style="fill:url(#SVGID_1_);" d="M139.595,177.381c-24.937-0.001-45.153,20.215-45.154,45.152s20.215,45.153,45.152,45.154
	s45.153-20.215,45.154-45.152c0-0.001,0-0.001,0-0.002C184.745,197.597,164.531,177.382,139.595,177.381L139.595,177.381z
	 M117.045,249.645c-4.996,0.014-9.058-4.024-9.072-9.02c-0.014-4.996,4.024-9.058,9.02-9.072c4.996-0.014,9.058,4.024,9.072,9.02
	C126.078,245.568,122.041,249.629,117.045,249.645z M148.615,227.045c-9.978-0.014-18.054-8.114-18.04-18.092
	c0.014-9.978,8.114-18.054,18.092-18.04c9.978,0.014,18.054,8.114,18.04,18.092c-0.008,9.97-8.098,18.046-18.068,18.038
	c-0.008,0-0.016,0-0.024,0V227.045z"/>
<g>
	
		<linearGradient id="SVGID_2_" gradientUnits="userSpaceOnUse" x1="243.2766" y1="493.2686" x2="243.2766" y2="34.7387" gradientTransform="matrix(1 0 0 -1 0 488.5373)">
		<stop  offset="0" style="stop-color:#00EFD1"/>
		<stop  offset="1" style="stop-color:#00ACEA"/>
	</linearGradient>
	<path style="fill:url(#SVGID_2_);" d="M407.974,64.232C309.094-26.728,155.199-20.307,64.24,78.573
		C27.977,117.994,5.738,168.281,0.974,221.632C0.328,228.747,0,236.032,0,243.273c-0.005,134.355,108.908,243.276,243.264,243.28
		c64.527,0.002,126.411-25.632,172.036-71.261c45.772-45.524,71.429-107.467,71.252-172.023c0-7.24-0.327-14.515-0.972-21.623
		C480.278,161.324,452.594,105.17,407.974,64.232z M92.117,78.814C182.865-4.678,324.114,1.205,407.605,91.952
		c30.728,33.399,50.549,75.368,56.821,120.316h-19.852c-5.026-49-46.889-88.128-97.622-88.128s-92.595,39.128-97.62,88.128h-12.116
		c-5.025-49-46.889-88.128-97.621-88.128s-92.596,39.128-97.621,88.128H22.122C29.236,161.001,53.985,113.813,92.117,78.814z
		 M367.668,275.774l20.565,26.185l15.892,20.18c11.353,20.123,4.244,45.639-15.879,56.991
		c-20.123,11.353-45.639,4.244-56.991-15.879c-7.196-12.755-7.199-28.345-0.006-41.103l5.066-6.4L367.668,275.774z M355.974,227.043
		c-9.978-0.014-18.054-8.114-18.04-18.092s8.114-18.054,18.092-18.04c9.978,0.014,18.054,8.114,18.04,18.092
		c-0.007,9.97-8.096,18.047-18.066,18.04C355.991,227.043,355.983,227.043,355.974,227.043L355.974,227.043z M397.832,281.799
		l-20.415-25.993c18.352-16.848,19.571-45.384,2.722-63.736c-16.848-18.352-45.384-19.571-63.736-2.722
		c-18.352,16.848-19.571,45.384-2.722,63.736c8.553,9.317,20.625,14.615,33.273,14.602c0.561,0,1.116-0.021,1.672-0.04
		l-23.47,29.923c-15.399-4.506-29.049-13.617-39.117-26.109c-11.204-13.837-17.284-31.118-17.213-48.922
		c-0.017-43.149,34.948-78.142,78.097-78.159s78.142,34.948,78.159,78.097c0.009,22.804-9.945,44.473-27.251,59.323L397.832,281.799
		z M333.423,240.569c0.014,4.996-4.024,9.058-9.02,9.072c-4.996,0.014-9.058-4.024-9.072-9.02c-0.014-4.996,4.024-9.058,9.02-9.072
		c0.017,0,0.035,0,0.052,0C329.381,231.559,333.413,235.591,333.423,240.569z M217.723,222.53c0,43.149-34.979,78.128-78.128,78.128
		c-43.149,0-78.128-34.979-78.128-78.128c0-43.149,34.979-78.128,78.128-78.128c0,0,0.001,0,0.001,0
		c43.13,0.05,78.08,35.002,78.126,78.132L217.723,222.53z M243.274,466.547c-123.116,0-223.278-100.294-223.278-223.41
		c0-3.579,0.094-6.868,0.268-10.868h21.71c5.526,53.915,53.713,93.141,107.628,87.615c46.281-4.744,82.871-41.334,87.615-87.615
		h12.146c3.75,37.2,28.293,69.046,63.311,82.15c-15.612,30.377-3.643,67.659,26.734,83.272
		c30.377,15.613,67.659,3.643,83.272-26.734c9.667-18.808,9.052-41.252-1.628-59.504l-0.345-0.587l-10.5-13.466
		c19.573-16.346,31.916-39.747,34.353-65.131h21.726c0.173,4,0.267,7.287,0.267,10.868
		C466.552,366.253,366.39,466.547,243.274,466.547L243.274,466.547z"/>
	
		<linearGradient id="SVGID_3_" gradientUnits="userSpaceOnUse" x1="243.1666" y1="493.2686" x2="243.1666" y2="34.7387" gradientTransform="matrix(1 0 0 -1 0 488.5373)">
		<stop  offset="0" style="stop-color:#00EFD1"/>
		<stop  offset="1" style="stop-color:#00ACEA"/>
	</linearGradient>
	<path style="fill:url(#SVGID_3_);" d="M276.757,360.856c-10.391-5.329-21.909-8.088-33.587-8.045
		c-23.243,0.049-45.128,10.959-59.156,29.492l15.981,12.026c15.779-20.918,44.28-27.519,67.649-15.67
		c7.337,3.768,13.729,9.144,18.7,15.725l15.975-12.033C295.524,373.354,286.786,366.006,276.757,360.856z"/>
</g>
<g>
</g>
<g>
</g>
<g>
</g>
<g>
</g>
<g>
</g>
<g>
</g>
<g>
</g>
<g>
</g>
<g>
</g>
<g>
</g>
<g>
</g>
<g>
</g>
<g>
</g>
<g>
</g>
<g>
</g>
</svg>
