<?xml version="1.0" encoding="iso-8859-1"?>
<!-- Generator: Adobe Illustrator 19.0.0, SVG Export Plug-In . SVG Version: 6.00 Build 0)  -->
<svg version="1.1" id="Capa_1" xmlns="http://www.w3.org/2000/svg" xmlns:xlink="http://www.w3.org/1999/xlink" x="0px" y="0px"
	 viewBox="0 0 498.136 498.136" style="enable-background:new 0 0 498.136 498.136;" xml:space="preserve">
<linearGradient id="SVGID_1_" gradientUnits="userSpaceOnUse" x1="1.7078" y1="33.8721" x2="116.9078" y2="33.8721" gradientTransform="matrix(1 0 0 -1 0 500.1842)">
	<stop  offset="0" style="stop-color:#00EFD1"/>
	<stop  offset="1" style="stop-color:#00ACEA"/>
</linearGradient>
<path style="fill:url(#SVGID_1_);" d="M65.687,474.744c-26.032-8.186-40.2-28.735-46.321-40.256l-17.658,9.391
	c7.559,14.221,25.149,39.62,57.979,49.943c9.142,2.872,18.671,4.327,28.254,4.314c9.81-0.025,19.566-1.462,28.967-4.267
	l-5.695-19.172C100.498,477.879,83.903,480.472,65.687,474.744L65.687,474.744z"/>
<g>
	
		<linearGradient id="SVGID_2_" gradientUnits="userSpaceOnUse" x1="360.3224" y1="492.334" x2="351.6814" y2="33.804" gradientTransform="matrix(1 0 0 -1 0 500.1842)">
		<stop  offset="0" style="stop-color:#00EFD1"/>
		<stop  offset="1" style="stop-color:#00ACEA"/>
	</linearGradient>
	<path style="fill:url(#SVGID_2_);" d="M312.296,160.392c0,24.937,20.215,45.152,45.152,45.152s45.152-20.215,45.152-45.152
		s-20.215-45.152-45.152-45.152C332.511,115.241,312.297,135.456,312.296,160.392z M334.896,187.504
		c-4.996,0.014-9.057-4.025-9.071-9.021c-0.014-4.996,4.025-9.057,9.021-9.071c4.996-0.014,9.057,4.024,9.071,9.02
		c0.012,4.995-4.025,9.054-9.02,9.07L334.896,187.504z M384.558,146.862c-0.015,9.978-8.116,18.053-18.094,18.038
		s-18.053-8.116-18.038-18.094c0.015-9.957,8.084-18.024,18.041-18.038c9.976-0.015,18.077,8.059,18.092,18.036
		c0,0.019,0,0.037,0,0.056L384.558,146.862z"/>
	
		<linearGradient id="SVGID_3_" gradientUnits="userSpaceOnUse" x1="153.037" y1="496.2403" x2="144.396" y2="37.7103" gradientTransform="matrix(1 0 0 -1 0 500.1842)">
		<stop  offset="0" style="stop-color:#00EFD1"/>
		<stop  offset="1" style="stop-color:#00ACEA"/>
	</linearGradient>
	<path style="fill:url(#SVGID_3_);" d="M150.089,205.542c24.937,0,45.152-20.215,45.152-45.152s-20.215-45.152-45.152-45.152
		s-45.152,20.215-45.152,45.152c0,0.001,0,0.001,0,0.002C104.94,185.327,125.153,205.54,150.089,205.542L150.089,205.542z
		 M159.109,128.768c9.978-0.013,18.077,8.064,18.09,18.042c0.013,9.978-8.064,18.077-18.042,18.09
		c-9.977,0.013-18.076-8.063-18.09-18.04C141.057,136.884,149.132,128.786,159.109,128.768L159.109,128.768z M127.539,169.41
		c4.996,0.014,9.034,4.076,9.02,9.072c-0.014,4.996-4.076,9.034-9.072,9.02c-4.996-0.014-9.034-4.076-9.02-9.072
		c0.004-4.985,4.048-9.024,9.034-9.02C127.513,169.41,127.526,169.41,127.539,169.41z"/>
	
		<linearGradient id="SVGID_4_" gradientUnits="userSpaceOnUse" x1="254.5891" y1="494.3265" x2="245.9481" y2="35.7965" gradientTransform="matrix(1 0 0 -1 0 500.1842)">
		<stop  offset="0" style="stop-color:#00EFD1"/>
		<stop  offset="1" style="stop-color:#00ACEA"/>
	</linearGradient>
	<path style="fill:url(#SVGID_4_);" d="M367.129,28.031C248.127-34.554,100.922,11.18,38.337,130.182
		c-4.125,7.842-7.818,15.904-11.063,24.149c-0.194,0.074-0.391,0.142-0.583,0.219c-12.708,4.858-19.072,19.098-14.214,31.806
		c0.44,1.151,0.966,2.267,1.573,3.34l1.73,3.093c-3.512,16.618-5.285,33.556-5.29,50.541c-0.018,16.877,1.742,33.708,5.251,50.216
		l-4.595,10.689c-7.865,18.37-11.192,38.364-9.7,58.292l0.048,0.761c0,0.051,0.007,0.1,0.011,0.154
		c2.042,27.262,12.517,53.212,29.972,74.252c1.325,1.616,2.617,3.166,3.878,4.676l0.971,1.165
		c9.133,10.982,21.615,18.667,35.534,21.877l3.185,0.731c13.123,2.989,26.889,1.021,38.649-5.525l0.1-0.054l0.837-0.479
		c4.449-2.337,8.251-5.738,11.067-9.9c114.269,70.708,264.223,35.396,334.932-78.874c51.461-83.164,48.127-189.057-8.463-268.819
		C430,71.394,400.882,45.898,367.129,28.031L367.129,28.031z M422.253,116.685c24.155,35.774,14.735,84.357-21.039,108.511
		s-84.357,14.735-108.511-21.039s-14.735-84.357,21.039-108.511c12.91-8.717,28.129-13.377,43.706-13.383
		C383.433,82.233,407.729,95.138,422.253,116.685z M125.514,60.514c81.16-57.14,190.338-53.674,267.71,8.5
		c-11.391-4.511-23.525-6.851-35.776-6.9c-50.733,0-92.6,38.978-97.622,87.978h-12.115c-5.026-49-46.889-87.978-97.622-87.978
		c-12.293,0.012-24.473,2.345-35.9,6.876C117.867,66.047,121.635,63.241,125.514,60.514L125.514,60.514z M150.089,82.263
		c43.157,0.004,78.14,34.993,78.136,78.15c-0.003,37.074-26.057,69.043-62.367,76.527c-2.379-1.284-4.9-2.509-7.592-3.655
		c-15.113-6.502-32.005-7.602-47.834-3.115c2.344-19.562-3.413-39.231-15.933-54.443c-2.295-2.763-4.782-5.36-7.444-7.771
		c-4.331-4.56-9.403-8.354-15-11.221C74.053,115.077,108.383,82.314,150.089,82.263z M53.146,145.155
		c-0.302,1.925-0.546,3.869-0.731,5.83c-0.647-0.062-1.293-0.112-1.942-0.15C51.341,148.928,52.227,147.032,53.146,145.155
		L53.146,145.155z M148.904,401.692c-2.686-2.856-6.764-3.933-10.51-2.775c-8.578,2.587-15.691,8.631-19.627,16.68l-2.748,5.6
		c-0.422,0.865-0.719,1.786-0.883,2.734c-0.568,2.926-1.407,5.793-2.506,8.563c-2.053,5.018-4.639,8.581-7.1,9.778
		c-0.2,0.1-0.393,0.2-0.584,0.308l-1.036,0.592c-7.436,4.128-16.134,5.365-24.426,3.476l-3.166-0.727
		c-9.643-2.222-18.291-7.548-24.616-15.159l-1-1.2c-1.226-1.47-2.484-2.978-3.807-4.591c-14.813-17.852-23.709-39.868-25.456-63
		l-0.047-0.751c0-0.046-0.006-0.092-0.01-0.138c-1.261-16.727,1.527-33.511,8.128-48.932l5.859-13.582
		c0.035-0.083,0.07-0.167,0.1-0.251l0.257-0.642c2.005-4.63,4.55-9.007,7.583-13.039c14.885-19.865,17.752-46.266,7.479-68.863
		l-3.058-6.739c-0.115-0.253-0.24-0.5-0.377-0.746l-15.886-28.421c-0.397-0.69-0.608-1.47-0.613-2.266
		c0.002-1.962,1.222-3.716,3.061-4.4l0.138-0.054c1.3-0.519,2.639-0.932,4.005-1.235c0.1-0.023,0.207-0.048,0.31-0.074
		c6.465-1.661,13.269-1.459,19.624,0.584c5.662,1.87,10.752,5.155,14.788,9.545c0.273,0.291,0.562,0.567,0.865,0.827
		c1.978,1.785,3.822,3.712,5.517,5.767c11.372,13.908,14.8,32.685,9.075,49.714l-2.07,6.274c-1.733,5.244,1.113,10.9,6.357,12.633
		c3.067,1.014,6.435,0.483,9.043-1.425c14.629-9.349,32.931-10.867,48.9-4.055c2.914,1.227,5.737,2.66,8.448,4.287
		c7.461,4.435,13.765,10.575,18.394,17.917c3.141,5.166,3.616,11.525,1.277,17.1c-14.295-5.477-35.542-8.1-50.109,0.959
		l10.561,16.984c9.388-5.839,28.765-2.007,37.4,3.056l2.178,1.3v-0.008c0.375,0.147,0.758,0.27,1.149,0.367
		c4.461,2.646,7.388,7.265,7.876,12.428h-0.006c0.406,3.128-0.636,6.27-2.83,8.535c-6.286-3.881-13.362-6.304-20.708-7.092
		c-12.588-1.695-25.326,1.789-35.3,9.654l12.523,15.622c10.943-8.787,26.221-5.757,33.264-0.779c0.332,0.649,0.717,1.27,1.152,1.855
		c1.761,2.753,2.974,5.82,3.571,9.033c1.039,5.571,0.029,11.329-2.842,16.215c-9.788-2.21-19.847-2.972-29.856-2.261l1.99,19.9
		c6.436-0.645,19.088,0.414,24.833,2.236c1.488,2.597,2.338,5.51,2.481,8.5c0,5.676-5.195,10.245-15.441,13.585
		c-0.34,0.069-0.661,0.136-0.964,0.2c-2.809,0.58-3.389,0.7-7.905,0.491c-0.902-0.037-1.801-0.131-2.691-0.283
		C152.39,411.777,153.167,406.197,148.904,401.692L148.904,401.692z M30.49,243.333c0-7.217,0.368-14.424,1.057-21.59l1.041,2.294
		c6.045,13.312,5.686,28.655-0.975,41.67C30.879,258.333,30.49,250.865,30.49,243.333L30.49,243.333z M477.046,243.315
		c0,123.116-100.162,223.3-223.278,223.3c-35.631,0.059-70.753-8.455-102.401-24.823c4.088,0.315,8.199,0.006,12.194-0.915
		l1.395-0.286c0.359-0.071,0.713-0.162,1.062-0.273c26.008-8.247,29.891-24.1,29.891-32.809c-0.089-5.449-1.362-10.813-3.731-15.721
		c8.059-11.998,9.747-27.177,4.521-40.653c2.141-1.892,4.044-4.037,5.668-6.388c7.635,6.794,16.133,12.552,25.272,17.126
		c15.968,7.973,33.581,12.096,51.428,12.039c54.912-0.115,102.216-38.729,113.323-92.507l-19.6-3.982
		c-9.191,44.47-48.313,76.398-93.723,76.489c-14.751,0.051-29.31-3.354-42.509-9.941c-11.239-5.64-21.275-13.408-29.553-22.874
		c-1.463-7.633-5.306-14.606-10.978-19.919l0.978-2.355c4.876-11.579,3.863-24.8-2.721-35.5c-2.559-4.074-5.511-7.888-8.813-11.386
		c34.458-13.439,58.485-45.047,62.215-81.845h12.14c5.388,53.921,53.467,93.264,107.387,87.876s93.264-53.467,87.876-107.387
		c-0.18-1.802-0.41-3.599-0.69-5.389C469.359,175.736,477.106,209.305,477.046,243.315L477.046,243.315z M188.814,326.421
		l3.926-0.46l-0.035,0.028L188.814,326.421z M197.605,325.421l-0.031,0.025l-0.065,0.008l0.037-0.033H197.605z M197.574,325.395
		l0.073-0.008l-0.011,0.009L197.574,325.395z"/>
</g>
<g>
</g>
<g>
</g>
<g>
</g>
<g>
</g>
<g>
</g>
<g>
</g>
<g>
</g>
<g>
</g>
<g>
</g>
<g>
</g>
<g>
</g>
<g>
</g>
<g>
</g>
<g>
</g>
<g>
</g>
</svg>
