<?xml version="1.0" standalone="no"?><svg xmlns="http://www.w3.org/2000/svg" viewBox="0 0 1440 320"><path fill="#800080" fill-opacity="0.2" d="M0,64L17.1,96C34.3,128,69,192,103,224C137.1,256,171,256,206,213.3C240,171,274,85,309,74.7C342.9,64,377,128,411,165.3C445.7,203,480,213,514,213.3C548.6,213,583,203,617,165.3C651.4,128,686,64,720,53.3C754.3,43,789,85,823,122.7C857.1,160,891,192,926,170.7C960,149,994,75,1029,90.7C1062.9,107,1097,213,1131,213.3C1165.7,213,1200,107,1234,85.3C1268.6,64,1303,128,1337,138.7C1371.4,149,1406,107,1423,85.3L1440,64L1440,0L1422.9,0C1405.7,0,1371,0,1337,0C1302.9,0,1269,0,1234,0C1200,0,1166,0,1131,0C1097.1,0,1063,0,1029,0C994.3,0,960,0,926,0C891.4,0,857,0,823,0C788.6,0,754,0,720,0C685.7,0,651,0,617,0C582.9,0,549,0,514,0C480,0,446,0,411,0C377.1,0,343,0,309,0C274.3,0,240,0,206,0C171.4,0,137,0,103,0C68.6,0,34,0,17,0L0,0Z"></path></svg>